<?xml version="1.0" standalone="no"?>
<!DOCTYPE svg PUBLIC "-//W3C//DTD SVG 20010904//EN"
 "http://www.w3.org/TR/2001/REC-SVG-20010904/DTD/svg10.dtd">
<svg version="1.0" xmlns="http://www.w3.org/2000/svg"
 width="700.000000pt" height="700.000000pt" viewBox="0 0 700.000000 700.000000"
 preserveAspectRatio="xMidYMid meet">
<metadata>
Created by potrace 1.14, written by Peter Selinger 2001-2017
</metadata>
<g transform="translate(0.000000,700.000000) scale(0.100000,-0.100000)"
fill="#000000" stroke="none">
<path d="M194 6980 c-71 -28 -131 -83 -162 -149 l-27 -56 0 -1305 0 -1305 23
-46 c31 -63 86 -117 152 -147 l55 -25 1285 -1 c1050 0 1292 2 1325 13 96 33
174 115 198 209 9 37 12 335 12 1323 l-1 1274 -25 55 c-31 66 -83 120 -147
152 l-47 23 -1295 2 c-1265 2 -1296 2 -1346 -17z"/>
<path d="M4040 6991 c-96 -30 -176 -107 -204 -194 -15 -49 -17 -160 -17 -1328
1 -810 4 -1286 11 -1308 23 -80 86 -151 168 -189 l57 -26 1271 -1 c700 0 1290
3 1311 8 99 19 197 112 224 210 13 48 17 2567 4 2608 -28 91 -82 157 -165 200
l-45 24 -1295 2 c-712 1 -1306 -2 -1320 -6z"/>
<path d="M266 3178 c-77 -10 -139 -42 -190 -100 -80 -88 -75 15 -73 -1438 l2
-1295 24 -48 c13 -26 45 -67 72 -91 93 -83 -11 -78 1422 -78 963 0 1283 3
1317 12 84 23 155 90 196 185 16 37 18 133 18 1330 l0 1290 -26 57 c-51 110
-145 172 -268 177 -158 7 -2442 5 -2494 -1z"/>
</g>
</svg>
